# xmcd CD database file
#
# Track frame offsets:
#	150
#	19000
#	21925
#	44627
#	63242
#
# Disc length: 1142 seconds
#
# Revision: 0
# Processed by: cddbd v1.5.1PL2 Copyright (c) Steve Scherf et al.
# Submitted via: CDex 1.60beta1
#
DISCID=3b047405
DTITLE=LEMON ANGEL - NEVER GIVE UP
DYEAR=2006
DGENRE=JPop
TTITLE0=NEVER GIVE UP
TTITLE1=L.A.P climax dialogue
TTITLE2=EVOLUTION
TTITLE3=NEVER GIVE UP (カラオケver.)
TTITLE4=EVOLUTION (カラオケver.)
EXTD=YEAR: 2006
EXTT0=
EXTT1=
EXTT2=
EXTT3=
EXTT4=
PLAYORDER=
